<?xml version="1.0" standalone="no"?>
<!DOCTYPE svg PUBLIC "-//W3C//DTD SVG 20010904//EN"
 "http://www.w3.org/TR/2001/REC-SVG-20010904/DTD/svg10.dtd">
<svg version="1.0" xmlns="http://www.w3.org/2000/svg"
 width="3703.000000pt" height="3703.000000pt" viewBox="0 0 3703.000000 3703.000000"
 preserveAspectRatio="xMidYMid meet">
<metadata>
Created by potrace 1.14, written by Peter Selinger 2001-2017
</metadata>
<g transform="translate(0.000000,3703.000000) scale(0.100000,-0.100000)"
fill="#000000" stroke="none">
<path d="M18578 37015 c-1 -2 -19 -6 -39 -9 -49 -7 -121 -39 -153 -67 -51 -45
-80 -110 -151 -341 -14 -48 -26 -91 -27 -95 0 -5 -6 -24 -13 -43 -8 -19 -30
-89 -50 -155 -20 -66 -50 -163 -67 -215 -16 -52 -31 -102 -33 -110 -2 -8 -14
-49 -27 -90 -13 -41 -55 -177 -93 -302 l-70 -227 -285 4 c-157 2 -449 7 -650
11 -571 11 -586 10 -666 -14 -177 -55 -261 -240 -199 -437 32 -99 17 -87 649
-527 188 -130 416 -289 509 -353 92 -64 167 -118 167 -119 0 -1 -14 -42 -31
-92 -17 -49 -32 -93 -33 -99 -2 -5 -6 -17 -9 -25 -7 -19 -94 -271 -112 -325
-8 -22 -38 -110 -69 -195 -101 -286 -188 -535 -190 -545 -2 -5 -6 -17 -9 -25
-67 -166 -68 -287 -2 -389 93 -146 298 -183 460 -83 60 38 167 115 680 492
259 190 484 356 502 368 36 26 45 23 125 -36 239 -177 878 -649 932 -689 234
-171 286 -196 396 -192 165 6 292 127 304 290 4 64 -12 117 -259 855 -124 369
-225 675 -225 680 0 11 104 86 540 389 55 39 168 118 250 176 83 59 161 114
173 122 108 77 278 205 305 231 119 111 116 325 -6 451 -87 90 -128 95 -672
89 -239 -3 -579 -6 -754 -7 l-320 -2 -23 60 c-26 66 -70 207 -223 710 -174
575 -224 715 -273 771 -39 45 -117 88 -177 98 -19 3 -45 8 -57 10 -11 3 -23 3
-25 1z m90 -525 c21 -69 130 -425 243 -792 l204 -668 265 5 c146 3 402 7 570
10 264 4 651 13 830 19 59 2 90 -2 90 -13 -1 -9 -97 -79 -555 -400 -707 -495
-809 -568 -833 -594 l-24 -25 55 -159 c154 -438 491 -1453 485 -1459 -3 -2
-106 70 -229 161 -123 91 -309 228 -414 305 -104 77 -293 216 -420 310 -126
94 -254 186 -283 206 l-53 34 -47 -32 c-26 -18 -51 -36 -57 -41 -5 -4 -26 -20
-47 -35 -20 -15 -48 -36 -63 -47 -15 -11 -136 -100 -269 -198 -843 -621 -914
-672 -922 -664 -3 3 8 40 25 83 16 44 48 133 71 199 23 66 64 183 92 260 27
77 64 183 83 235 18 52 59 167 90 255 31 88 61 171 65 185 5 14 32 90 60 170
84 236 84 238 71 253 -6 8 -72 56 -146 108 -316 220 -361 251 -380 265 -11 8
-186 130 -390 271 -432 298 -480 334 -480 353 0 12 13 15 55 13 134 -3 765
-13 1201 -19 l476 -5 15 53 c9 29 63 206 121 393 120 385 270 874 323 1045 19
63 40 126 46 140 12 29 6 44 76 -180z"/>
<path d="M18018 32025 c-2 -1 -84 -6 -183 -9 -99 -4 -211 -9 -250 -11 -38 -2
-115 -7 -170 -10 -55 -3 -113 -8 -130 -10 -16 -2 -70 -7 -120 -10 -49 -3 -106
-8 -125 -10 -19 -2 -71 -7 -115 -11 -89 -7 -107 -9 -182 -18 -29 -3 -77 -9
-105 -12 -29 -3 -64 -7 -78 -9 -14 -2 -47 -7 -75 -10 -27 -3 -68 -8 -90 -10
-22 -3 -58 -7 -80 -11 -64 -9 -87 -12 -135 -19 -85 -11 -162 -23 -380 -59
-167 -28 -180 -30 -285 -51 -38 -8 -81 -16 -95 -19 -66 -11 -442 -89 -495
-103 -33 -8 -69 -17 -79 -19 -34 -6 -159 -36 -216 -51 -30 -7 -63 -16 -72 -18
-9 -2 -79 -20 -155 -40 -76 -20 -145 -38 -153 -40 -38 -8 -392 -112 -550 -161
-215 -68 -589 -195 -770 -262 -167 -62 -368 -139 -395 -152 -11 -5 -110 -46
-220 -91 -110 -45 -237 -99 -283 -121 -46 -21 -85 -38 -87 -38 -2 0 -48 -21
-102 -46 -54 -25 -134 -62 -178 -82 -121 -56 -545 -267 -675 -337 -63 -34
-155 -84 -205 -110 -49 -27 -107 -59 -127 -72 -21 -12 -39 -23 -42 -23 -13 0
-600 -352 -604 -362 -2 -5 -8 -8 -12 -8 -12 0 -257 -157 -475 -305 -222 -150
-390 -268 -619 -438 -171 -126 -631 -491 -736 -583 -14 -12 -97 -84 -185 -160
-88 -76 -165 -143 -171 -149 -6 -5 -50 -46 -99 -90 -324 -296 -761 -732 -1115
-1116 -77 -84 -299 -337 -345 -394 -22 -28 -42 -52 -45 -55 -13 -12 -164 -196
-251 -305 -236 -297 -393 -507 -644 -865 -33 -46 -264 -391 -295 -440 -5 -8
-21 -32 -35 -53 -102 -154 -408 -666 -517 -867 -20 -36 -47 -85 -61 -110 -113
-204 -350 -673 -472 -935 -106 -228 -320 -728 -324 -758 0 -4 -7 -20 -15 -35
-58 -113 -354 -950 -440 -1242 -90 -308 -127 -438 -131 -455 -2 -11 -25 -96
-50 -190 -52 -197 -171 -709 -191 -820 -8 -50 -12 -67 -28 -145 -26 -128 -99
-544 -111 -635 -5 -38 -16 -110 -20 -135 -4 -23 -9 -57 -21 -155 -2 -22 -7
-51 -9 -65 -4 -22 -13 -100 -20 -170 -1 -14 -5 -47 -9 -75 -12 -95 -30 -267
-42 -405 -3 -41 -7 -91 -9 -110 -3 -37 -13 -160 -20 -270 -8 -107 -16 -268
-20 -385 -5 -141 -5 -1249 -1 -1335 2 -36 7 -128 11 -205 3 -77 8 -160 10
-185 2 -25 6 -88 10 -140 3 -52 8 -111 10 -130 3 -19 7 -69 10 -110 3 -41 7
-91 10 -110 2 -19 6 -62 10 -95 9 -92 14 -142 25 -235 5 -47 12 -107 15 -135
3 -27 8 -61 10 -75 9 -61 17 -117 20 -140 2 -14 6 -43 9 -65 3 -22 8 -58 11
-80 3 -23 7 -50 9 -60 2 -11 7 -40 10 -65 6 -46 32 -202 61 -365 36 -203 115
-588 156 -755 12 -47 23 -96 25 -110 8 -40 109 -433 144 -560 194 -692 431
-1365 717 -2035 52 -122 68 -158 130 -295 152 -334 397 -822 539 -1075 25 -44
33 -57 89 -160 21 -38 56 -99 77 -134 21 -34 38 -65 38 -66 0 -5 183 -308 275
-455 61 -98 288 -443 385 -584 77 -113 314 -443 363 -506 7 -9 25 -33 41 -55
17 -22 33 -42 36 -45 3 -3 17 -21 30 -40 13 -19 27 -37 30 -40 3 -3 21 -25 40
-50 40 -52 260 -330 275 -346 5 -7 26 -31 45 -55 19 -24 52 -64 74 -89 21 -25
46 -54 55 -65 318 -376 915 -998 1290 -1345 69 -63 150 -138 181 -167 31 -29
67 -62 80 -73 14 -12 50 -43 80 -70 30 -27 66 -58 80 -70 14 -12 48 -41 75
-65 85 -74 196 -166 300 -250 55 -44 102 -83 105 -86 9 -10 354 -275 470 -361
156 -115 378 -273 475 -338 44 -29 82 -56 85 -60 3 -4 10 -9 15 -11 6 -2 69
-43 140 -90 187 -123 276 -181 306 -199 80 -47 125 -75 129 -80 3 -3 16 -11
30 -19 37 -22 373 -220 390 -231 27 -17 382 -213 485 -268 133 -70 675 -338
795 -392 52 -24 133 -60 178 -81 46 -22 86 -39 88 -39 2 0 27 -11 56 -24 280
-127 854 -348 1263 -484 220 -73 447 -145 670 -210 103 -31 464 -127 585 -156
161 -39 472 -110 525 -120 11 -3 99 -20 195 -40 96 -19 227 -44 290 -55 63
-11 129 -22 145 -25 47 -8 227 -37 255 -41 14 -2 75 -11 135 -20 158 -23 229
-33 385 -50 52 -6 78 -10 153 -19 17 -2 66 -7 107 -11 41 -3 91 -8 110 -10 74
-9 138 -15 220 -21 47 -3 101 -7 120 -9 82 -8 304 -21 550 -32 333 -15 1359
-7 1560 12 19 2 85 6 145 10 125 7 196 12 275 20 30 3 84 7 120 10 36 3 85 7
110 10 25 3 70 7 100 10 30 3 71 7 90 10 19 3 62 7 95 10 33 3 69 7 81 9 11 2
45 7 75 10 61 7 110 13 154 20 17 3 53 8 81 11 28 3 59 7 70 9 23 4 99 16 134
21 41 6 113 17 135 21 11 3 36 7 55 10 19 3 49 7 65 10 37 6 341 62 375 69 14
3 41 8 60 11 60 10 443 93 555 120 11 3 31 7 45 10 22 5 338 85 465 119 419
111 980 292 1450 468 140 53 416 162 462 183 17 7 34 14 37 14 3 0 25 9 49 19
23 11 134 60 247 109 321 140 837 389 1068 516 42 23 113 62 157 86 44 23 114
62 155 85 41 23 95 53 120 67 25 14 59 34 77 44 17 10 62 37 100 59 622 362
1395 898 1948 1350 72 59 148 121 170 138 21 18 60 50 85 72 26 22 71 60 100
85 157 132 488 429 634 569 184 178 691 686 725 726 18 22 69 78 114 125 45
47 99 106 119 132 21 25 72 82 113 126 41 44 75 83 75 87 0 8 19 30 88 104 24
25 53 59 65 74 12 15 29 36 37 47 8 10 24 31 35 46 11 16 43 54 70 85 28 31
59 68 70 83 33 44 61 78 117 145 29 35 59 74 66 87 7 13 17 24 23 24 5 0 9 5
9 10 0 13 69 108 127 175 24 27 43 55 43 62 0 7 5 13 10 13 6 0 14 8 17 18 4
9 11 22 15 27 4 6 29 39 55 75 26 36 60 78 75 95 15 16 35 45 45 65 10 19 20
37 23 40 10 9 37 55 39 65 1 6 9 14 17 18 8 4 14 12 14 17 0 8 117 167 160
217 5 7 10 19 10 27 0 7 7 16 15 20 8 3 15 14 15 24 0 11 7 25 15 32 8 7 15
19 15 26 0 8 5 14 10 14 6 0 10 6 10 14 0 8 7 16 15 20 8 3 15 12 15 20 0 8 6
19 13 23 6 4 23 28 36 53 13 25 52 88 87 141 34 53 76 120 94 150 17 30 44 74
60 99 16 25 34 55 39 67 5 11 15 24 20 28 6 3 11 15 11 25 0 10 6 23 13 27 8
4 22 27 32 50 11 24 22 43 27 43 4 0 8 6 8 14 0 7 7 19 15 26 9 7 14 19 11 27
-3 8 1 16 9 19 8 4 15 13 15 20 0 8 7 17 15 20 8 4 15 15 15 25 0 11 10 36 23
57 13 20 58 102 99 182 42 80 85 161 96 180 12 19 31 55 43 80 12 25 56 114
97 198 41 84 79 155 83 158 5 3 9 13 9 23 0 10 6 24 14 30 8 7 17 23 21 38 3
14 32 80 64 147 32 66 66 144 76 171 10 28 24 57 32 66 7 8 13 22 13 29 0 7 6
21 13 29 8 9 19 36 26 61 7 25 26 71 42 102 16 32 29 63 29 70 0 7 11 35 25
63 13 27 58 138 101 245 42 107 80 200 84 205 4 6 10 21 13 35 8 37 56 172 66
184 5 6 11 25 14 41 3 17 33 109 67 205 64 185 217 663 251 790 12 41 30 107
40 145 11 39 21 77 23 85 2 8 9 35 16 60 7 25 13 52 15 60 2 8 8 35 15 60 7
25 14 52 15 60 2 8 18 74 35 145 18 72 34 139 36 150 7 35 12 59 24 110 6 28
13 57 15 65 7 33 95 471 100 497 40 220 49 273 61 348 4 28 8 52 9 55 0 3 5
30 9 60 4 30 9 62 11 70 1 8 10 67 20 130 9 63 18 127 21 141 2 15 6 47 9 70
3 24 8 61 11 82 8 50 11 80 19 157 3 36 8 76 10 90 3 14 7 50 10 80 3 30 7 75
10 100 2 25 7 74 10 110 4 36 8 81 10 100 2 19 7 80 11 135 3 55 8 108 9 117
2 9 6 72 10 140 3 68 8 152 10 188 14 249 18 413 18 680 0 272 -10 803 -18
950 -10 176 -17 289 -20 315 -2 17 -6 75 -10 130 -4 55 -8 111 -10 125 -2 14
-6 59 -10 100 -3 41 -8 93 -10 115 -2 22 -7 72 -10 110 -4 39 -8 72 -10 75 -2
3 -6 37 -10 75 -3 39 -8 77 -10 85 -2 8 -7 44 -10 80 -9 96 -15 141 -25 180
-10 38 -16 80 -26 175 -3 33 -10 79 -15 103 -5 24 -12 67 -14 95 -3 29 -11 81
-19 117 -26 123 -46 238 -46 269 0 17 -4 31 -9 31 -5 0 -8 8 -7 17 2 10 -6 56
-16 103 -11 47 -22 94 -24 105 -3 11 -6 35 -8 53 -2 18 -6 35 -10 39 -3 3 -6
16 -6 28 0 12 -3 25 -7 29 -4 3 -8 17 -10 29 -6 50 -14 86 -43 197 -12 47 -24
96 -26 110 -3 14 -16 68 -29 120 -13 52 -26 109 -28 125 -2 17 -9 43 -15 58
-7 16 -12 34 -12 41 0 7 -14 57 -31 110 -16 53 -32 104 -34 113 -1 10 -10 43
-19 74 -9 31 -18 65 -20 75 -9 48 -29 110 -38 121 -6 7 -8 19 -5 27 3 8 0 20
-8 26 -7 6 -11 20 -8 30 3 11 1 20 -5 20 -5 0 -13 17 -17 38 -9 50 -66 225
-76 236 -5 6 -9 23 -9 38 0 15 -4 28 -10 28 -5 0 -9 3 -8 8 3 11 -44 156 -55
169 -5 7 -7 19 -4 27 3 8 0 17 -8 20 -8 3 -14 13 -13 23 0 19 -35 126 -52 155
-6 10 -10 27 -10 37 0 11 -4 22 -8 25 -5 3 -17 32 -27 66 -10 33 -22 60 -27
60 -4 0 -8 9 -8 21 0 11 -5 29 -11 40 -6 11 -12 29 -14 40 -2 11 -18 49 -35
85 -16 35 -30 70 -30 77 0 7 -7 23 -16 35 -9 13 -14 25 -11 28 2 3 -8 30 -24
61 -16 31 -29 67 -29 80 0 13 -4 23 -10 23 -5 0 -10 5 -10 11 0 6 -7 26 -15
45 -8 19 -22 51 -31 72 -8 20 -21 51 -29 67 -7 17 -18 41 -23 55 -6 14 -24 54
-40 90 -16 36 -32 75 -36 88 -4 12 -12 22 -17 22 -6 0 -8 4 -5 9 5 8 -7 40
-36 91 -4 8 -13 26 -18 40 -6 14 -15 32 -20 40 -6 8 -13 22 -16 30 -12 32 -22
56 -33 83 -6 15 -15 27 -20 27 -6 0 -8 6 -5 14 3 8 -4 24 -15 35 -12 12 -21
32 -21 45 0 13 -7 29 -15 36 -8 7 -15 18 -15 26 0 7 -6 19 -14 26 -7 8 -17 25
-21 38 -4 14 -14 33 -23 43 -8 9 -12 17 -8 17 8 0 -76 164 -86 168 -5 2 -8 12
-8 22 0 10 -4 21 -9 24 -5 3 -26 40 -46 81 -21 42 -42 78 -47 81 -4 3 -8 14
-8 24 0 10 -6 23 -12 27 -13 8 -48 68 -48 83 0 8 -41 80 -72 128 -10 15 -23
38 -28 52 -6 13 -16 31 -23 38 -6 8 -12 21 -13 29 -2 8 -10 23 -18 32 -9 10
-16 25 -16 34 0 9 -5 17 -10 17 -6 0 -17 18 -26 40 -9 22 -19 40 -23 40 -5 0
-20 21 -35 48 -14 26 -32 56 -39 67 -36 60 -41 71 -43 82 -1 7 -18 32 -38 56
-20 24 -36 49 -36 54 0 6 -16 30 -35 54 -19 24 -35 49 -35 55 0 6 -7 17 -15
24 -8 7 -15 21 -15 32 0 11 -8 22 -19 25 -10 3 -21 17 -24 31 -3 15 -16 38
-28 51 -12 13 -31 40 -43 60 -32 58 -74 119 -86 126 -5 3 -10 13 -10 21 0 8
-7 22 -15 32 -25 28 -114 151 -126 175 -7 12 -29 43 -51 70 -21 27 -38 55 -38
63 0 7 -9 18 -20 24 -11 6 -20 17 -20 25 0 8 -13 30 -30 48 -16 19 -30 40 -30
45 0 6 -8 16 -18 21 -10 5 -24 22 -32 38 -8 15 -36 53 -62 84 -27 31 -48 60
-48 65 0 16 -53 84 -66 84 -8 0 -14 9 -14 20 0 10 -6 23 -14 27 -7 4 -19 19
-26 32 -7 13 -26 40 -44 58 -17 19 -35 41 -39 49 -4 8 -15 14 -22 14 -8 0 -14
4 -12 9 4 14 -166 239 -249 327 -16 18 -49 56 -74 84 -25 29 -57 66 -72 82
-16 16 -28 34 -28 39 0 6 -7 9 -15 5 -8 -3 -15 -1 -15 3 0 5 6 12 13 14 7 3 5
6 -5 6 -10 1 -18 8 -18 16 0 8 -8 15 -17 15 -9 0 -14 3 -10 6 3 3 -5 16 -19
29 -13 12 -24 27 -24 34 0 6 -7 11 -15 11 -8 0 -14 3 -13 8 2 4 -16 27 -40 51
-23 24 -42 50 -42 58 0 7 -9 13 -20 13 -11 0 -20 5 -20 11 0 6 -12 25 -26 43
-58 69 -531 558 -585 603 -8 7 -23 24 -34 38 -11 13 -25 25 -30 25 -6 0 -18
13 -28 29 -9 15 -36 45 -59 66 -24 20 -60 52 -82 71 -21 19 -42 34 -47 34 -5
0 -9 7 -9 15 0 8 -7 15 -15 15 -8 0 -15 3 -15 8 0 16 -114 124 -167 159 -13 9
-20 19 -17 24 3 5 -2 9 -10 9 -9 0 -16 7 -16 15 0 8 -4 15 -9 15 -4 0 -39 28
-77 61 -38 34 -79 66 -91 72 -13 6 -23 14 -23 19 0 8 -25 33 -67 68 -10 8 -41
34 -69 58 -27 23 -56 42 -62 42 -7 0 -12 5 -12 10 0 6 -14 19 -31 29 -17 10
-29 21 -27 24 2 2 -19 23 -47 45 -27 22 -63 52 -80 65 -16 14 -33 23 -38 20
-4 -2 -10 3 -13 11 -3 9 -10 16 -14 16 -4 0 -29 21 -56 48 -58 55 -115 102
-128 102 -5 0 -19 11 -32 25 -13 14 -26 25 -30 25 -4 0 -14 7 -23 15 -9 8 -36
31 -61 50 -25 19 -50 40 -57 45 -7 6 -17 10 -23 10 -6 0 -13 7 -16 15 -4 8
-12 15 -19 15 -8 0 -22 11 -33 25 -11 14 -24 25 -30 25 -5 0 -32 20 -60 45
-27 25 -53 45 -57 45 -4 0 -24 14 -45 30 -21 17 -43 30 -49 30 -6 0 -11 4 -11
9 0 5 -10 13 -22 17 -13 4 -25 10 -28 13 -11 16 -211 161 -220 161 -6 0 -13 7
-16 15 -4 8 -12 15 -18 15 -14 0 -189 119 -194 132 -2 4 -8 8 -13 8 -5 0 -49
26 -97 58 -48 32 -133 87 -190 123 -57 35 -121 75 -142 89 -32 21 -106 66
-215 133 -11 7 -43 27 -72 45 -30 17 -56 32 -58 32 -3 0 -22 11 -43 23 -34 22
-307 175 -462 260 -469 256 -971 497 -1465 704 -33 13 -73 31 -90 38 -117 50
-532 209 -710 272 -38 13 -79 28 -90 33 -11 4 -29 11 -40 13 -11 3 -92 30
-180 60 -491 169 -1182 358 -1685 463 -19 4 -39 9 -45 10 -39 9 -161 35 -187
39 -18 3 -49 10 -68 15 -19 5 -51 11 -70 14 -46 7 -192 33 -255 46 -52 10
-386 64 -465 75 -25 3 -97 13 -160 21 -63 9 -126 17 -140 19 -14 2 -52 6 -85
9 -33 4 -71 9 -85 11 -14 3 -54 7 -90 10 -36 3 -81 8 -100 10 -73 8 -137 15
-195 20 -33 2 -87 7 -120 10 -142 12 -303 23 -630 41 -85 5 -1152 13 -1157 9z
m297 -1619 c127 -4 309 -9 405 -11 96 -3 244 -7 330 -10 85 -2 265 -7 400 -11
135 -4 277 -8 315 -9 39 -2 86 -4 105 -4 l35 -1 -2 -87 c-1 -49 -4 -166 -6
-262 -4 -185 -6 -191 -55 -185 -22 3 -280 9 -677 18 l-49 1 -2 -125 c-1 -114
-11 -523 -19 -825 -12 -437 -16 -560 -20 -720 -7 -233 -14 -486 -14 -552 l-1
-52 -112 4 c-62 2 -196 7 -298 10 -102 3 -194 7 -205 9 -19 3 -20 10 -19 117
1 106 9 446 19 824 18 686 26 1005 29 1193 l2 142 -150 1 c-178 0 -574 12
-606 18 -16 3 -1 495 16 522 4 7 209 5 579 -5z m-1484 -93 c1 -11 6 -44 24
-143 8 -47 17 -98 19 -115 3 -16 8 -41 11 -55 3 -14 7 -43 10 -65 2 -22 7 -59
11 -81 6 -45 3 -50 -42 -58 -16 -3 -40 -8 -54 -11 -14 -2 -37 -7 -52 -10 -16
-3 -38 -7 -50 -9 -13 -3 -61 -12 -108 -20 -47 -8 -94 -17 -105 -19 -11 -3 -40
-8 -65 -12 -25 -4 -54 -9 -65 -11 -11 -3 -36 -7 -55 -10 -19 -2 -55 -9 -80
-14 -25 -5 -61 -12 -80 -15 -33 -5 -55 -9 -110 -21 -14 -2 -41 -7 -60 -10 -19
-2 -43 -7 -52 -10 -9 -2 -25 -7 -35 -9 -35 -7 -73 -25 -73 -34 0 -11 55 -341
66 -396 3 -16 9 -50 13 -75 4 -30 11 -45 21 -45 19 -1 47 4 370 60 406 70 528
88 544 82 12 -5 26 -49 42 -137 31 -169 42 -239 50 -317 l5 -61 -43 -7 c-55
-9 -77 -13 -108 -20 -32 -7 -54 -11 -110 -20 -25 -4 -54 -9 -65 -11 -30 -7
-246 -45 -280 -51 -60 -9 -76 -12 -157 -29 -156 -31 -158 -32 -158 -60 0 -12
4 -45 9 -71 5 -26 14 -77 20 -113 6 -36 13 -78 16 -95 3 -16 8 -45 11 -64 6
-36 11 -60 19 -101 2 -14 7 -38 10 -55 13 -82 18 -90 46 -87 68 8 410 63 534
86 11 2 36 6 55 10 19 3 44 8 55 10 11 2 43 7 70 10 28 4 57 9 65 11 8 2 29 6
45 9 17 3 71 12 120 20 106 18 175 27 175 23 0 -4 18 -103 25 -137 22 -107 64
-373 60 -380 -3 -4 -31 -11 -62 -16 -32 -4 -60 -8 -63 -9 -3 -1 -39 -7 -80
-14 -41 -7 -84 -15 -95 -18 -11 -2 -85 -15 -165 -29 -80 -13 -181 -31 -225
-39 -44 -8 -93 -17 -110 -19 -16 -3 -120 -21 -230 -40 -110 -19 -213 -37 -230
-39 -16 -3 -57 -10 -90 -16 -33 -6 -76 -13 -95 -16 -19 -4 -72 -13 -118 -21
-45 -8 -99 -17 -120 -19 -20 -3 -49 -8 -63 -11 -24 -5 -27 -2 -33 33 -3 21 -8
49 -10 63 -3 14 -12 66 -21 115 -8 50 -24 140 -35 200 -11 61 -24 137 -30 170
-9 57 -13 76 -25 135 -2 14 -7 41 -10 60 -5 34 -21 128 -31 180 -8 49 -43 246
-49 280 -3 19 -15 85 -25 145 -11 61 -31 175 -45 255 -13 80 -26 154 -29 165
-2 11 -7 42 -10 68 -4 27 -9 59 -12 70 -4 19 -13 70 -39 217 -14 80 -57 337
-60 357 -2 12 -6 34 -9 50 -3 15 -9 46 -12 68 -3 22 -9 58 -14 80 -5 22 -6 43
-2 47 7 7 42 15 107 24 22 3 56 9 75 14 19 5 57 11 84 15 27 3 52 8 56 10 4 2
29 7 56 11 27 3 51 7 54 9 3 2 30 6 60 10 30 4 57 8 60 10 3 2 26 6 50 10 25
3 77 12 115 20 39 7 88 16 110 20 23 3 50 7 62 9 28 6 94 17 118 21 11 2 76
13 145 25 69 12 139 24 155 27 17 2 100 17 185 32 159 29 239 37 241 24z
m4999 -288 c318 -62 609 -237 786 -471 102 -136 203 -376 219 -520 7 -59 6
-398 0 -484 -18 -241 -132 -579 -268 -800 -178 -287 -422 -481 -709 -564 -114
-33 -148 -37 -308 -41 -432 -9 -857 197 -1079 524 -194 285 -259 655 -191
1086 35 226 145 525 262 715 178 288 453 490 763 560 103 24 394 21 525 -5z
m-8017 -567 c191 -44 337 -151 450 -329 111 -174 169 -367 169 -556 0 -191
-32 -291 -148 -464 -64 -96 -75 -123 -51 -132 10 -4 55 -38 222 -169 6 -5 21
-18 35 -29 14 -12 41 -33 60 -48 19 -14 37 -28 40 -32 3 -3 75 -61 160 -129
85 -69 160 -129 166 -135 6 -5 28 -23 49 -40 85 -67 225 -188 225 -194 0 -9
-43 -27 -341 -146 -129 -52 -253 -97 -275 -100 -44 -7 -28 -17 -208 135 -105
89 -295 248 -544 456 -91 76 -152 120 -161 117 -9 -3 -25 -9 -36 -13 -11 -5
-72 -30 -135 -56 -63 -26 -117 -49 -119 -50 -5 -4 31 -114 64 -199 13 -33 68
-172 123 -310 117 -294 164 -427 154 -437 -13 -12 -515 -210 -547 -215 l-31
-5 -54 133 c-151 378 -313 778 -326 806 -8 17 -14 34 -14 38 0 6 -13 38 -41
100 -17 37 -259 640 -264 655 -2 8 -43 110 -90 225 -48 116 -92 226 -99 245
-7 19 -39 98 -70 175 -32 77 -63 157 -71 178 l-13 38 41 18 c40 17 348 141
452 182 28 11 59 24 70 29 11 5 83 34 160 64 430 168 481 185 630 202 28 4 52
8 55 11 12 11 242 -2 313 -19z m10060 -94 c66 -28 477 -231 513 -254 20 -12
21 -16 8 -64 -7 -28 -16 -67 -19 -86 -3 -19 -10 -53 -15 -75 -5 -22 -12 -55
-15 -74 -3 -19 -7 -37 -9 -40 -2 -3 -7 -24 -10 -46 -4 -22 -10 -53 -15 -70 -5
-16 -14 -55 -20 -85 -7 -30 -34 -158 -62 -285 -28 -126 -52 -241 -55 -255 -3
-14 -50 -227 -105 -475 -56 -247 -102 -458 -104 -468 -3 -10 -6 -26 -9 -35 -3
-9 -7 -28 -10 -42 -2 -14 -10 -47 -16 -73 -24 -92 -19 -88 193 157 62 71 119
137 127 146 8 8 24 27 35 41 18 22 81 95 153 178 13 14 34 37 46 51 12 14 91
106 176 205 85 99 186 216 225 260 38 45 97 112 130 149 33 38 71 82 85 99 14
16 39 46 57 66 18 20 81 93 140 163 59 70 112 127 117 127 11 1 342 -155 471
-222 55 -29 100 -57 100 -63 0 -10 -56 -72 -285 -314 -28 -30 -82 -86 -118
-125 -106 -112 -364 -385 -402 -425 -19 -20 -105 -110 -190 -200 -85 -90 -173
-182 -195 -205 -22 -24 -80 -85 -129 -136 -249 -262 -434 -456 -551 -577
l-130 -134 -135 62 c-154 70 -457 225 -481 246 -8 8 -20 14 -26 14 -12 0 -45
35 -39 41 2 2 6 27 10 54 7 55 15 102 21 125 2 8 7 38 10 65 4 28 8 57 10 65
2 8 7 31 10 50 3 19 12 71 20 115 20 111 64 366 70 412 3 21 8 44 11 52 2 8 7
37 10 65 3 28 8 54 9 57 4 5 22 106 30 164 2 11 13 74 25 140 27 149 25 135
50 285 12 69 23 134 25 145 11 54 25 133 29 160 5 32 33 193 41 235 24 134 48
269 50 285 2 11 10 56 18 100 8 44 23 124 32 178 10 53 20 97 22 97 2 0 32
-12 66 -26z m-13083 -1385 c479 -13 988 -414 1268 -1000 100 -208 141 -369
149 -581 14 -356 -88 -618 -342 -873 -128 -129 -217 -195 -355 -267 -187 -98
-336 -133 -560 -132 -190 0 -323 30 -497 110 -63 28 -238 135 -253 153 -3 3
-32 29 -65 56 -74 61 -205 198 -276 285 -195 243 -351 570 -385 810 -15 103
-20 166 -18 240 2 79 4 102 20 200 11 68 66 216 109 296 119 219 312 413 542
545 142 81 353 152 473 158 30 1 56 4 58 5 1 2 15 2 30 0 15 -2 61 -4 102 -5z
m16225 -564 c57 -8 193 -44 235 -62 312 -135 516 -313 657 -573 80 -149 158
-424 124 -444 -10 -6 -396 -90 -463 -101 -30 -5 -36 -2 -46 20 -7 14 -12 33
-12 41 0 25 -39 136 -70 199 -85 173 -236 290 -425 331 -56 12 -188 12 -244 0
-230 -50 -443 -201 -627 -446 -110 -145 -210 -369 -229 -513 -7 -45 -7 -157
-1 -186 41 -189 129 -320 283 -418 121 -78 249 -111 424 -109 l115 1 3 -125
c5 -198 5 -389 1 -394 -16 -15 -283 -23 -367 -11 -292 42 -531 171 -750 405
-162 174 -283 406 -323 621 -20 103 -17 369 4 464 53 235 177 484 345 695 63
78 200 221 273 283 165 140 376 249 581 302 130 33 135 34 302 30 94 -3 188
-7 210 -10z m-18530 -1026 c17 -14 91 -80 165 -145 74 -65 145 -129 159 -142
27 -25 32 -15 -50 -107 -180 -201 -379 -426 -403 -454 l-28 -35 54 -49 c112
-104 265 -244 318 -292 30 -27 57 -53 60 -56 3 -3 50 -45 105 -95 55 -49 102
-91 105 -95 3 -3 50 -46 105 -95 55 -49 105 -93 111 -99 25 -22 167 -151 188
-170 12 -11 54 -48 92 -81 38 -34 81 -73 95 -85 14 -13 63 -58 109 -99 46 -41
88 -79 94 -85 6 -5 58 -53 116 -105 106 -96 120 -110 120 -122 0 -3 -21 -30
-47 -59 -58 -64 -125 -139 -217 -243 -131 -147 -146 -161 -154 -150 -4 5 -16
17 -28 25 -12 8 -52 41 -90 75 -38 33 -125 110 -194 170 -69 60 -127 111 -130
114 -3 3 -59 52 -125 110 -66 58 -125 110 -131 115 -6 6 -29 26 -50 45 -21 19
-82 73 -134 119 -52 47 -97 87 -100 90 -3 3 -41 37 -85 76 -44 38 -85 74 -91
80 -6 5 -44 39 -84 75 -40 36 -85 76 -100 90 -15 14 -67 61 -116 105 -48 44
-120 110 -158 147 l-71 68 -35 -38 c-68 -75 -189 -208 -210 -232 -103 -121
-266 -290 -279 -290 -11 0 -68 46 -140 111 -204 188 -241 223 -241 233 0 12
52 75 154 186 28 30 83 91 121 135 78 88 176 197 184 205 3 3 40 43 81 90 41
46 82 91 90 100 8 9 45 50 81 91 37 41 78 85 90 100 36 38 165 181 186 205 20
24 103 115 298 329 55 61 113 124 129 142 30 34 34 34 81 -8z m20404 -510 c28
-29 81 -86 118 -127 37 -41 73 -80 78 -86 50 -53 165 -190 165 -198 0 -5 -35
-41 -77 -81 -42 -40 -93 -88 -113 -107 -21 -19 -59 -55 -86 -80 -27 -25 -99
-91 -159 -147 -61 -56 -120 -110 -132 -120 -12 -11 -72 -66 -134 -124 -142
-132 -126 -117 -254 -234 -61 -55 -112 -102 -115 -105 -3 -3 -57 -52 -120
-110 -63 -58 -117 -107 -120 -110 -3 -3 -54 -50 -115 -105 -60 -55 -115 -104
-121 -110 -238 -218 -219 -201 -324 -295 -46 -41 -97 -88 -114 -103 -70 -65
-72 -65 -119 -15 -139 148 -307 332 -351 384 l-26 32 93 88 c79 75 205 193
316 293 14 13 55 51 92 85 88 83 267 247 290 267 10 9 47 43 82 75 35 32 103
95 151 139 49 44 108 99 133 121 24 23 75 70 113 104 38 34 89 81 113 104 25
22 55 50 68 61 24 21 136 124 239 219 30 28 123 112 205 186 83 74 152 138
153 143 7 15 23 5 71 -44z m-10064 -23 c132 -4 276 -9 320 -11 136 -8 229 -15
255 -19 14 -3 57 -7 95 -11 39 -3 84 -8 100 -10 17 -2 53 -7 80 -10 77 -10
102 -13 220 -30 132 -19 143 -21 390 -65 242 -43 577 -121 900 -209 155 -43
631 -197 680 -220 11 -6 40 -17 65 -25 45 -14 378 -146 435 -171 17 -8 89 -39
160 -70 137 -60 557 -265 685 -335 68 -37 144 -79 240 -133 47 -26 277 -164
320 -192 366 -235 695 -467 900 -635 31 -25 73 -58 94 -75 117 -90 371 -311
545 -474 595 -555 1143 -1200 1536 -1806 32 -49 82 -126 110 -170 414 -640
812 -1474 1060 -2220 97 -293 236 -789 271 -970 2 -11 15 -74 28 -140 27 -128
71 -364 81 -430 7 -53 14 -94 20 -125 3 -14 7 -47 10 -75 3 -27 10 -75 15
-105 5 -30 12 -75 14 -100 3 -25 8 -65 11 -90 3 -25 8 -67 11 -95 3 -27 7 -61
9 -75 2 -14 7 -63 10 -110 4 -47 9 -93 10 -102 21 -109 21 -1398 0 -1568 -2
-19 -7 -73 -11 -120 -3 -47 -8 -93 -9 -102 -2 -9 -7 -48 -10 -85 -4 -37 -8
-79 -10 -93 -3 -14 -7 -45 -10 -70 -6 -49 -14 -110 -20 -150 -2 -14 -7 -45
-10 -70 -8 -59 -14 -99 -20 -130 -3 -14 -7 -38 -9 -55 -13 -82 -19 -113 -52
-285 -19 -102 -41 -210 -49 -240 -8 -30 -16 -68 -19 -85 -8 -44 -73 -306 -103
-410 -13 -49 -27 -97 -29 -105 -47 -198 -267 -831 -368 -1064 -7 -17 -26 -60
-41 -96 -15 -36 -40 -93 -56 -128 -16 -35 -29 -65 -29 -67 0 -14 -237 -495
-307 -625 -102 -186 -228 -405 -235 -408 -4 -2 -8 -7 -8 -12 0 -13 -300 -492
-320 -510 -3 -3 -23 -32 -45 -65 -22 -33 -43 -62 -46 -65 -3 -3 -20 -27 -39
-55 -30 -45 -251 -341 -291 -390 -70 -85 -285 -343 -298 -356 -9 -9 -27 -29
-41 -45 -122 -144 -537 -570 -720 -740 -94 -87 -267 -242 -329 -294 -30 -25
-59 -50 -65 -55 -217 -197 -803 -621 -1183 -856 -308 -191 -740 -421 -1103
-587 -161 -74 -463 -202 -476 -202 -3 0 -24 -8 -47 -19 -23 -10 -76 -30 -117
-45 -41 -15 -84 -32 -95 -36 -144 -64 -869 -281 -1115 -335 -8 -2 -76 -17
-150 -33 -172 -39 -400 -83 -555 -108 -16 -2 -41 -6 -55 -9 -25 -4 -79 -12
-140 -20 -17 -2 -43 -6 -58 -9 -15 -3 -54 -8 -87 -11 -33 -3 -67 -8 -75 -10
-8 -2 -44 -7 -80 -10 -36 -3 -78 -8 -94 -10 -16 -2 -64 -7 -105 -11 -42 -4
-89 -8 -106 -10 -155 -14 -341 -18 -830 -19 -492 0 -629 3 -870 20 -22 2 -85
8 -140 14 -55 6 -125 14 -155 16 -30 3 -66 7 -80 10 -29 5 -97 15 -143 20 -33
3 -160 22 -212 31 -16 2 -55 9 -85 14 -30 5 -68 11 -85 14 -174 29 -326 61
-715 151 -75 17 -359 97 -500 140 -1007 310 -1978 786 -2850 1399 -150 105
-385 283 -510 386 -19 15 -51 41 -71 57 -40 31 -126 102 -143 118 -6 6 -67 60
-136 120 -232 204 -583 548 -770 755 -52 57 -104 114 -115 125 -11 12 -47 53
-80 91 -33 38 -62 71 -65 74 -10 9 -195 234 -215 261 -11 14 -56 73 -100 130
-137 178 -236 317 -373 524 -73 110 -136 205 -140 210 -15 20 -260 432 -297
500 -21 39 -58 106 -83 150 -106 194 -273 546 -409 865 -9 19 -21 49 -28 65
-94 217 -296 794 -360 1030 -8 27 -26 93 -40 145 -15 52 -29 102 -30 110 -2 8
-18 72 -35 142 -17 70 -33 135 -35 145 -14 66 -47 221 -51 238 -15 73 -55 289
-59 320 -3 21 -12 73 -19 115 -6 29 -33 215 -41 280 -3 25 -8 61 -10 80 -3 19
-7 62 -10 95 -4 33 -8 65 -10 71 -2 7 -7 54 -10 105 -4 52 -9 97 -11 101 -25
43 -25 1583 0 1728 2 14 7 54 11 90 3 36 8 79 10 95 2 17 9 75 15 130 16 139
18 152 41 305 11 74 22 151 24 170 3 19 10 58 15 85 5 28 12 66 15 85 32 197
131 629 204 888 12 39 29 102 40 140 26 92 119 377 180 552 177 502 454 1102
730 1585 35 61 75 130 89 155 140 248 460 719 689 1014 51 66 101 131 110 144
10 13 23 29 28 36 6 6 53 63 105 126 52 63 97 117 100 120 4 3 42 46 85 95 43
50 100 113 126 140 26 28 62 66 79 85 112 124 425 432 594 585 112 101 99 90
181 160 39 33 72 63 75 66 14 16 382 307 500 396 296 220 722 500 995 653 22
12 74 42 115 65 267 152 606 318 925 455 198 84 203 87 315 130 47 18 94 36
105 41 249 105 1017 338 1260 383 11 2 38 9 60 14 50 14 206 47 345 73 146 28
141 27 185 33 22 4 51 8 65 11 59 11 88 16 130 21 25 3 52 7 60 9 8 2 71 11
140 20 173 23 177 23 250 30 36 3 81 8 100 10 19 2 73 7 120 10 47 4 105 8
129 10 25 2 99 7 165 11 67 3 122 7 123 8 5 4 613 -2 848 -8z m3767 -21158
c19 -30 90 -289 91 -336 1 -25 -24 -104 -75 -232 -141 -364 -183 -532 -204
-825 -14 -198 -5 -491 21 -675 7 -50 17 -116 22 -145 2 -16 6 -39 8 -50 1 -11
8 -47 14 -80 16 -85 19 -101 36 -185 43 -213 55 -300 41 -300 -2 0 -80 -20
-173 -46 -92 -25 -179 -47 -193 -50 -14 -3 -34 -8 -45 -11 -11 -4 -24 -8 -30
-9 -5 -1 -39 -9 -74 -18 -36 -9 -68 -13 -72 -9 -14 15 -47 157 -73 313 -36
220 -35 218 -42 290 -3 36 -7 79 -9 95 -5 40 -5 535 0 605 17 226 63 453 151
735 52 170 74 248 70 252 -2 2 -79 -17 -172 -43 -392 -106 -988 -263 -990
-261 -3 3 -82 284 -89 317 -2 8 -13 53 -24 100 -11 46 -17 87 -13 91 6 6 105
37 142 44 8 2 71 19 140 38 69 20 208 59 310 87 265 72 292 80 325 89 17 5
167 46 335 91 168 45 359 97 425 116 66 18 123 33 126 33 4 1 13 -9 21 -21z
m-7106 -212 c92 -17 208 -54 304 -99 233 -110 418 -330 466 -557 20 -96 20
-283 0 -376 -81 -374 -365 -675 -1070 -1134 -64 -41 -114 -75 -113 -76 1 -1
18 -5 37 -8 19 -3 60 -10 90 -16 30 -6 71 -13 90 -16 19 -3 53 -10 75 -16 22
-5 51 -12 65 -14 14 -3 86 -18 160 -35 74 -17 142 -32 151 -34 76 -15 267 -70
277 -80 11 -10 10 -29 -8 -111 -31 -147 -91 -365 -108 -391 -5 -8 -71 5 -242
48 -129 32 -244 61 -255 63 -11 2 -40 9 -65 16 -25 7 -53 14 -63 15 -9 2 -45
11 -80 20 -34 9 -70 18 -79 20 -38 8 -235 57 -263 66 -26 8 -305 76 -345 84
-29 6 -366 94 -410 108 -51 15 -51 13 -23 142 8 39 16 80 18 92 2 11 10 45 19
75 15 52 18 55 93 99 43 26 94 55 113 65 19 10 37 22 38 27 2 4 7 7 12 7 18 0
475 273 645 385 220 146 406 303 511 430 51 62 113 188 122 248 14 87 5 221
-17 269 -26 56 -95 128 -151 155 -40 19 -55 25 -110 41 -8 3 -54 6 -102 8
-103 3 -162 -14 -328 -95 -99 -49 -105 -51 -120 -34 -22 23 -230 368 -230 381
0 16 33 39 150 100 130 68 261 117 341 127 30 4 56 9 58 11 11 10 275 2 347
-10z m2299 -371 c429 -91 683 -442 741 -1020 5 -54 4 -364 -1 -445 -51 -744
-364 -1241 -836 -1329 -81 -16 -200 -18 -299 -6 -41 4 -77 9 -80 10 -3 1 -18
5 -35 9 -244 63 -431 223 -555 475 -41 82 -98 244 -106 301 -3 19 -7 42 -10
50 -3 8 -7 31 -10 50 -2 19 -8 64 -14 100 -8 63 -6 544 4 605 2 17 7 57 11 90
14 137 78 379 139 523 32 78 105 210 129 234 7 7 24 28 37 47 59 84 192 189
311 245 129 61 235 84 374 81 66 -1 156 -10 200 -20z m2276 3 c0 -7 2 -20 4
-29 1 -9 6 -54 9 -100 4 -46 8 -100 11 -119 2 -19 6 -71 10 -115 4 -44 8 -93
10 -110 2 -16 6 -59 10 -95 3 -36 8 -81 10 -100 4 -32 6 -57 20 -205 3 -27 8
-72 10 -100 3 -27 7 -79 10 -115 3 -36 7 -81 10 -100 2 -19 7 -64 10 -100 3
-36 8 -81 10 -100 2 -19 7 -64 10 -100 3 -36 8 -78 10 -95 2 -16 6 -66 10
-110 4 -44 9 -87 10 -97 2 -9 6 -51 10 -95 3 -43 8 -87 9 -98 7 -37 20 -190
18 -199 -2 -7 174 0 233 9 11 2 52 6 90 10 39 3 95 8 126 11 l57 5 6 -43 c3
-24 9 -73 11 -109 3 -37 8 -77 10 -89 2 -12 7 -78 11 -145 l7 -123 -59 -7
c-33 -3 -72 -8 -89 -10 -16 -2 -61 -6 -100 -10 -38 -3 -83 -8 -100 -10 -16 -2
-59 -6 -95 -10 -60 -5 -106 -9 -220 -20 -53 -5 -150 -15 -200 -20 -20 -2 -69
-7 -110 -10 -41 -3 -91 -7 -110 -9 -19 -3 -64 -7 -100 -11 -36 -3 -81 -8 -100
-10 -19 -2 -73 -7 -120 -11 -47 -3 -92 -7 -100 -9 -8 -2 -63 -6 -121 -10
l-106 -7 -7 53 c-16 140 -24 226 -32 352 l-7 107 24 1 c13 1 38 2 54 4 17 1
64 6 105 9 75 6 144 13 210 21 19 2 64 7 100 10 71 7 81 12 82 41 0 21 -11
184 -18 254 -2 25 -6 77 -9 115 -3 39 -7 95 -10 125 -3 30 -8 82 -10 115 -3
33 -7 80 -9 105 -3 25 -8 72 -11 105 -3 33 -7 83 -10 110 -3 28 -7 75 -10 105
-17 189 -24 261 -30 305 -11 84 -17 142 -18 155 0 29 -18 39 -65 35 -54 -5
-132 -11 -247 -20 -156 -12 -195 -12 -196 -1 0 6 -2 18 -3 26 -2 8 -6 42 -10
75 -4 33 -9 74 -11 90 -13 98 -14 167 -2 180 7 7 47 24 88 38 161 54 331 134
448 210 106 69 114 73 160 76 24 1 53 4 64 7 11 2 52 6 91 10 39 3 72 7 73 8
1 0 42 2 92 4 70 3 91 0 92 -10z"/>
<path d="M21520 29482 c-42 -6 -142 -54 -199 -95 -119 -87 -217 -215 -282
-367 -35 -83 -92 -270 -104 -340 -4 -25 -9 -54 -12 -65 -24 -119 -21 -355 6
-460 59 -223 209 -389 391 -431 19 -4 42 -9 50 -11 39 -10 130 -10 180 -1 176
32 326 150 456 361 46 75 141 323 159 419 3 13 10 48 16 78 18 90 20 344 4
435 -25 141 -70 230 -158 318 -130 130 -315 188 -507 159z"/>
<path d="M13394 28924 c-38 -6 -96 -21 -129 -33 -33 -12 -64 -23 -70 -25 -5
-1 -27 -10 -49 -19 -21 -9 -42 -17 -47 -17 -5 0 -44 -14 -87 -31 -42 -18 -89
-37 -104 -43 -16 -6 -28 -14 -28 -17 0 -22 265 -697 280 -713 5 -4 25 -3 47 4
81 27 392 165 403 179 3 4 22 18 43 30 51 31 111 108 136 176 62 166 -20 400
-170 483 -65 36 -126 43 -225 26z"/>
<path d="M10533 27378 c-152 -23 -317 -146 -388 -291 -46 -93 -63 -170 -59
-273 4 -136 28 -221 105 -381 170 -354 427 -603 719 -698 85 -28 217 -25 306
6 117 42 228 128 290 224 94 147 106 319 40 550 -36 124 -162 351 -266 480
-55 68 -219 224 -279 264 -150 102 -310 143 -468 119z"/>
<path d="M16900 25437 c-3 -3 -36 -7 -75 -11 -132 -12 -244 -33 -438 -82 -104
-26 -342 -102 -400 -127 -17 -8 -56 -25 -86 -37 -162 -66 -410 -211 -581 -338
-253 -190 -517 -488 -649 -737 -57 -107 -53 -104 -161 -109 -214 -8 -601 -144
-810 -285 -269 -180 -494 -424 -624 -674 -23 -45 -48 -96 -54 -112 -41 -108
-56 -152 -82 -251 -17 -61 -34 -147 -38 -191 -13 -138 -5 -488 13 -553 2 -8 7
-29 9 -46 3 -16 21 -82 41 -145 19 -63 35 -119 35 -125 0 -6 -37 -37 -82 -69
-148 -106 -221 -167 -343 -289 -66 -67 -129 -132 -140 -146 -11 -14 -36 -46
-56 -70 -146 -182 -303 -479 -377 -710 -31 -97 -67 -231 -76 -285 -3 -16 -10
-54 -15 -82 -28 -146 -34 -470 -12 -628 59 -414 214 -773 470 -1092 120 -150
224 -252 361 -354 182 -136 375 -233 588 -294 94 -27 98 -28 177 -40 28 -5 59
-10 70 -11 11 -2 101 -7 200 -10 99 -4 181 -7 182 -9 2 -1 5 -89 8 -196 10
-410 21 -760 30 -1004 3 -77 8 -196 10 -265 4 -123 10 -291 20 -565 44 -1219
52 -2481 20 -3150 -2 -49 -7 -157 -10 -240 -3 -82 -8 -177 -10 -210 -2 -33 -7
-112 -10 -175 -3 -63 -8 -135 -10 -160 -2 -25 -7 -85 -10 -135 -4 -49 -8 -106
-10 -125 -2 -19 -6 -73 -10 -120 -10 -133 -25 -284 -40 -410 -5 -36 -12 -104
-20 -179 -2 -24 -7 -61 -10 -82 -3 -22 -7 -56 -10 -76 -3 -21 -14 -103 -25
-183 -11 -80 -23 -163 -26 -185 -3 -22 -9 -65 -14 -95 -6 -30 -12 -73 -15 -95
-3 -22 -8 -49 -10 -61 -3 -12 -7 -39 -10 -60 -4 -21 -18 -102 -31 -179 -14
-77 -30 -162 -34 -190 -5 -27 -12 -62 -15 -78 -6 -32 -10 -56 -30 -167 -8 -47
-17 -96 -20 -110 -43 -209 -63 -417 -60 -640 3 -213 4 -223 35 -355 48 -205
172 -418 337 -576 116 -111 289 -223 423 -274 41 -16 129 -54 195 -86 66 -31
161 -71 210 -89 50 -17 97 -34 105 -37 8 -3 20 -7 25 -9 6 -1 53 -14 105 -28
87 -23 250 -59 325 -71 17 -3 41 -8 55 -10 46 -10 65 -13 120 -20 30 -4 64 -9
75 -11 30 -6 221 -32 290 -39 33 -3 76 -8 95 -10 19 -3 61 -7 93 -10 31 -3 81
-7 110 -10 28 -2 88 -7 132 -10 44 -3 107 -8 140 -10 156 -12 532 -24 940 -30
322 -5 1940 -5 2165 0 367 7 709 22 920 40 146 13 182 16 235 20 161 15 384
39 455 50 14 2 48 6 75 10 75 9 118 16 135 20 8 2 35 7 60 10 36 5 202 39 290
59 62 15 192 53 225 66 11 4 49 18 85 30 36 13 93 36 128 51 34 16 64 29 67
29 2 0 41 18 87 39 46 21 108 49 139 61 31 12 80 37 109 56 28 19 58 34 66 34
8 0 14 5 14 10 0 6 10 14 23 19 13 5 34 18 48 29 13 12 60 49 104 84 44 35 94
84 110 109 17 25 46 64 66 86 77 85 185 315 212 453 24 118 28 172 27 370 0
177 -2 208 -15 310 -12 88 -16 117 -45 280 -17 91 -32 179 -35 195 -3 17 -10
50 -15 75 -10 46 -46 257 -54 319 -6 45 32 98 159 219 99 95 196 159 340 224
71 32 355 140 475 181 50 17 162 58 289 106 197 74 463 219 640 349 72 53 179
155 270 256 214 240 378 573 426 866 3 19 10 62 16 95 6 33 12 69 14 80 6 38
27 170 30 195 9 64 16 112 19 137 8 56 27 199 31 228 2 17 7 57 10 90 3 33 8
71 10 85 4 23 7 46 20 168 3 23 7 61 10 85 3 23 8 60 10 82 2 22 7 69 10 105
4 35 8 71 10 80 2 9 6 54 10 101 4 46 8 86 10 89 2 3 6 48 10 100 4 52 9 102
10 111 2 8 6 53 10 100 4 46 8 102 11 124 3 38 8 89 19 213 3 31 8 86 10 122
3 36 7 92 10 125 2 33 7 101 10 150 3 50 8 111 10 136 2 26 7 95 10 155 4 60
8 132 10 159 2 28 6 111 10 185 4 74 8 164 10 200 2 36 6 148 10 250 4 102 8
228 10 280 24 593 24 2251 0 2650 -2 36 -6 112 -10 169 -5 101 -9 142 -21 261
-8 80 -13 122 -19 150 -3 14 -7 43 -10 65 -2 22 -7 51 -10 65 -2 14 -10 50
-15 80 -24 123 -103 363 -158 479 -20 42 -36 78 -37 81 0 3 -9 19 -19 35 -11
17 -30 48 -44 70 -105 169 -279 349 -445 459 -77 51 -315 176 -335 176 -5 0
-34 11 -63 23 -71 31 -162 56 -279 76 l-95 16 0 180 c-1 187 -8 236 -56 358
-41 106 -82 172 -159 261 -120 137 -262 233 -420 284 -120 40 -205 51 -365 47
-82 -2 -162 -6 -177 -8 -16 -2 -33 1 -38 8 -6 7 -26 58 -44 113 -72 212 -172
372 -335 532 -218 215 -487 351 -740 375 -20 1 -109 3 -199 4 -159 1 -163 1
-171 24 -5 12 -19 49 -31 82 -21 54 -108 237 -130 275 -5 8 -28 47 -51 85 -85
143 -272 355 -429 486 -36 30 -67 57 -70 60 -24 27 -249 161 -344 204 -81 37
-250 101 -287 109 -13 3 -60 15 -104 26 -44 11 -100 23 -125 26 -25 3 -48 8
-51 10 -12 7 -175 18 -274 18 -101 0 -239 -9 -285 -19 -13 -2 -41 -7 -62 -10
-95 -15 -236 -58 -376 -116 -83 -34 -93 -37 -98 -21 -24 76 -104 264 -131 309
-18 31 -33 57 -33 60 0 2 -22 37 -49 77 -198 293 -459 525 -758 675 -147 74
-390 153 -542 177 -18 3 -42 7 -51 9 -10 2 -40 6 -67 10 -26 4 -59 9 -73 12
-32 6 -464 15 -470 10z m420 -251 c36 -4 101 -14 145 -22 44 -9 94 -18 110
-21 39 -6 290 -88 335 -109 245 -113 396 -212 544 -357 172 -169 280 -336 361
-560 48 -133 47 -149 -12 -190 -133 -92 -335 -285 -417 -400 -69 -97 -120
-222 -82 -200 14 8 156 136 240 217 78 74 245 209 303 244 105 64 296 150 433
195 119 39 169 53 270 72 94 18 355 24 515 11 325 -26 699 -180 955 -395 315
-264 511 -561 609 -921 42 -159 55 -272 56 -490 0 -184 -8 -256 -50 -430 -72
-306 -93 -450 -64 -450 16 0 106 94 138 144 44 70 104 231 127 341 31 142 33
179 29 455 -2 157 -7 306 -11 332 l-6 47 64 -3 c84 -5 201 -17 209 -22 4 -2
23 -6 44 -10 190 -30 457 -181 605 -341 145 -158 263 -375 285 -524 6 -48 12
-40 -78 -109 -129 -98 -252 -248 -287 -347 -9 -25 -6 -23 23 11 166 203 374
333 577 362 102 15 259 7 355 -16 295 -73 501 -271 600 -578 22 -70 32 -173
23 -252 -35 -314 -232 -567 -508 -651 -62 -19 -97 -23 -195 -22 -171 1 -283
38 -458 152 -117 75 -112 11 9 -106 129 -124 326 -197 557 -205 20 -1 37 -4
37 -7 0 -9 -101 -161 -131 -197 -32 -38 -187 -194 -219 -219 -57 -46 -97 -74
-134 -95 l-39 -21 6 33 c3 18 11 66 18 106 12 63 11 83 -5 160 -37 182 -106
282 -348 498 -59 54 -138 103 -181 115 -52 13 -65 25 -137 119 -104 136 -156
172 -325 224 l-100 30 -3145 2 c-2463 2 -4359 8 -4662 15 -10 0 -20 4 -23 10
-18 28 -28 145 -29 324 -1 96 -5 162 -11 165 -16 7 -48 -72 -70 -175 -9 -38
-15 -70 -19 -91 -4 -19 -16 -158 -20 -224 -2 -23 -10 -27 -103 -51 -184 -47
-273 -111 -379 -274 -89 -138 -132 -239 -159 -377 -16 -80 -16 -86 4 -166 31
-120 47 -157 200 -462 154 -308 264 -544 371 -795 123 -289 118 -277 173 -420
47 -124 59 -159 63 -185 3 -20 -86 79 -193 213 -48 59 -90 107 -95 107 -26 0
78 -226 170 -370 31 -49 117 -167 132 -180 3 -3 11 -13 19 -22 12 -16 10 -19
-10 -27 -13 -5 -43 -11 -67 -15 -24 -3 -46 -7 -50 -10 -31 -18 -420 -28 -542
-13 -299 36 -575 147 -821 328 -87 64 -282 253 -334 324 -17 22 -36 46 -43 53
-56 60 -242 393 -242 435 0 7 -4 17 -9 23 -11 11 -73 223 -86 294 -33 182 -48
417 -33 554 22 213 22 211 54 346 81 342 256 694 489 985 62 78 306 329 365
375 l38 30 75 -113 c84 -127 277 -334 284 -306 2 9 -27 76 -65 150 -38 74 -88
184 -112 244 -23 61 -46 117 -50 125 -18 37 -80 292 -88 358 -10 82 -8 521 3
567 69 319 210 575 443 805 254 251 576 406 905 435 75 7 77 6 56 -69 -12 -44
-14 -54 -35 -156 -17 -86 -23 -152 -24 -264 -1 -150 19 -294 40 -281 8 5 22
64 34 140 29 180 39 236 65 337 115 456 480 932 951 1240 343 224 753 384
1154 451 119 20 168 23 355 21 119 -1 245 -5 281 -8z m7178 -4716 c23 -6 59
-13 80 -16 79 -13 271 -78 370 -125 350 -169 620 -487 741 -874 33 -107 74
-293 90 -415 10 -69 14 -107 26 -230 4 -42 9 -129 20 -360 26 -588 27 -1890 0
-2555 -2 -55 -6 -170 -9 -255 -3 -85 -8 -198 -11 -250 -3 -52 -8 -142 -10
-200 -3 -58 -8 -136 -10 -175 -2 -38 -7 -115 -10 -170 -6 -105 -12 -194 -20
-310 -3 -38 -8 -101 -10 -140 -3 -38 -8 -96 -10 -127 -3 -32 -7 -85 -10 -118
-12 -140 -16 -187 -20 -230 -2 -25 -7 -74 -10 -110 -4 -36 -8 -81 -10 -100 -2
-19 -7 -66 -10 -105 -3 -38 -8 -81 -10 -95 -2 -14 -7 -61 -10 -105 -4 -44 -8
-87 -10 -95 -2 -8 -7 -44 -10 -80 -3 -36 -7 -81 -10 -100 -2 -19 -7 -53 -10
-75 -8 -65 -15 -118 -19 -150 -2 -16 -7 -58 -11 -93 -3 -35 -10 -73 -15 -85
-9 -23 -9 -22 -15 43 -2 19 -6 46 -9 60 -32 141 -40 148 -51 40 -3 -36 -8 -76
-10 -90 -3 -14 -7 -56 -10 -95 -3 -38 -8 -77 -10 -85 -2 -8 -7 -39 -10 -69 -4
-30 -8 -61 -10 -70 -1 -9 -6 -36 -10 -61 -9 -56 -11 -63 -25 -125 -6 -27 -13
-57 -15 -65 -17 -83 -60 -210 -97 -289 -34 -70 -211 -266 -216 -239 -2 8 14
50 34 94 82 177 142 367 179 563 25 136 14 123 -80 -99 -136 -322 -248 -497
-434 -679 -123 -121 -233 -194 -353 -235 -68 -23 -102 -27 -200 -28 -75 0
-115 4 -189 17 -108 20 -219 164 -253 327 -8 37 -15 134 -15 215 -1 81 -4 149
-6 152 -19 19 -67 -203 -71 -329 -3 -108 -2 -102 -13 -95 -11 6 -48 100 -56
142 -12 58 -6 249 10 313 9 36 17 72 19 81 7 27 57 143 90 203 24 47 47 71
106 115 184 136 283 289 345 535 13 50 26 115 30 145 4 30 9 63 11 75 6 32 15
147 29 381 2 50 7 110 10 135 2 25 7 90 10 145 3 55 8 120 10 145 2 25 7 88
10 140 3 52 8 129 10 170 8 121 22 464 30 750 12 380 5 1771 -10 2070 -10 204
-28 379 -49 485 -46 224 -87 376 -126 470 -5 11 -12 31 -16 45 -6 23 -6 24 11
10 41 -34 140 -169 167 -229 17 -35 42 -111 57 -169 l27 -105 23 54 c72 166
11 356 -183 571 -27 29 -136 143 -244 253 -281 287 -342 377 -361 532 -17 140
18 417 53 418 4 0 19 -29 32 -65 34 -91 93 -216 128 -272 16 -26 25 -22 20 10
-5 31 -21 112 -30 157 -3 17 -7 95 -8 175 -3 168 12 243 71 349 31 55 123 176
157 206 7 6 36 39 65 75 30 36 57 67 61 70 14 10 109 158 150 233 40 75 43 77
78 77 21 0 56 -5 80 -10z m-2383 -250 c12 -19 41 -66 65 -104 l44 -68 -34 -67
c-19 -36 -61 -113 -93 -171 -73 -130 -99 -176 -149 -265 -21 -38 -43 -77 -48
-85 -6 -8 -18 -31 -28 -50 -10 -19 -54 -98 -96 -174 -209 -375 -317 -619 -459
-1037 l-62 -183 -108 -32 -108 -32 -47 37 c-26 21 -52 44 -58 52 -6 8 -23 64
-39 124 -35 139 -134 445 -144 445 -4 0 -22 -15 -41 -34 l-34 -33 -51 29
c-205 117 -456 213 -635 243 -19 3 -42 8 -50 10 -39 12 -113 16 -324 20 l-228
4 6 -2222 c4 -1222 8 -2505 10 -2852 3 -346 5 -805 6 -1020 l1 -390 40 -44
c22 -24 56 -64 77 -89 20 -26 44 -53 52 -62 8 -9 35 -40 60 -70 25 -30 77 -91
115 -136 39 -44 81 -94 94 -110 13 -16 38 -45 55 -64 17 -20 50 -58 72 -85
105 -126 341 -405 383 -454 25 -29 49 -59 53 -65 8 -14 -18 -87 -63 -181 l-35
-70 -1719 0 c-1706 0 -1720 0 -1741 20 -11 11 -50 54 -85 95 -35 41 -70 81
-76 88 -17 18 -16 37 4 75 9 18 17 34 18 37 0 3 15 37 33 75 l33 70 992 2
c1135 3 1837 10 1845 18 8 7 -38 55 -68 69 -17 8 -52 10 -110 6 -47 -3 -728
-7 -1515 -9 l-1430 -3 -32 84 c-18 46 -37 103 -43 127 -13 50 -23 37 114 154
26 23 62 54 78 69 16 15 47 42 69 60 46 37 73 60 109 91 14 12 66 56 115 97
50 41 99 82 110 92 11 9 74 61 140 116 l120 100 -3 3178 c-2 1748 -5 3181 -8
3185 -5 9 -561 4 -609 -4 -16 -3 -48 -8 -70 -11 -114 -14 -267 -57 -350 -99
-94 -46 -187 -124 -243 -204 -87 -123 -179 -417 -197 -632 -3 -31 -7 -74 -10
-96 -2 -22 -7 -65 -11 -95 -3 -30 -7 -57 -10 -59 -2 -2 -70 -4 -151 -4 l-147
1 -30 34 c-17 20 -50 56 -73 83 -27 31 -40 54 -38 68 2 12 6 45 10 72 10 78
16 118 21 145 2 14 7 41 10 60 12 74 56 244 90 340 150 436 401 671 846 789
182 48 269 57 763 77 83 3 161 7 174 8 27 3 39 20 21 31 -41 26 -803 26 -930
0 -13 -2 -42 -7 -65 -10 -58 -9 -186 -42 -274 -72 -237 -79 -432 -248 -545
-471 -27 -53 -84 -216 -93 -262 -2 -14 -10 -50 -18 -80 -7 -30 -19 -89 -25
-130 -7 -41 -14 -82 -15 -90 -8 -45 -16 -137 -20 -229 -3 -75 -8 -109 -19
-119 -12 -12 -47 -15 -161 -17 -140 -1 -148 0 -156 19 -5 12 -45 129 -90 261
-115 339 -272 734 -414 1040 -20 44 -55 121 -78 170 -22 50 -110 227 -194 393
l-153 304 60 106 60 107 3981 0 3982 0 22 -35z m401 -329 c27 -21 80 -70 118
-109 l69 -70 -80 -109 c-118 -160 -174 -246 -274 -421 -161 -280 -379 -745
-524 -1117 -25 -66 -50 -129 -55 -140 -5 -11 -23 -54 -39 -95 -71 -182 -74
-187 -133 -204 -29 -8 -77 -20 -107 -27 -49 -10 -55 -10 -85 12 -52 38 -186
162 -186 172 0 38 250 696 350 922 5 11 18 43 30 70 54 129 217 460 287 585
98 174 142 242 239 377 128 175 135 181 192 185 155 10 146 11 198 -31z
m-5782 -1605 c6 -25 11 -595 5 -600 -10 -9 -176 -89 -222 -107 -29 -11 -65
-27 -82 -34 -42 -19 -123 -45 -140 -45 -18 0 -19 18 -5 91 6 29 13 76 15 104
3 27 7 66 10 85 2 19 7 63 10 98 11 108 31 181 77 278 26 56 38 69 78 89 25
13 73 30 106 39 51 13 75 17 130 25 7 0 14 -10 18 -23z m3276 -16 c107 -40
230 -93 230 -100 0 -3 -4 -31 -10 -61 -5 -30 -12 -67 -15 -84 -2 -16 -7 -41
-10 -55 -12 -63 -15 -78 -20 -130 -3 -30 -8 -62 -10 -70 -2 -8 -7 -40 -10 -70
-3 -30 -10 -89 -15 -130 -5 -41 -12 -102 -15 -135 -3 -33 -8 -80 -11 -105 -5
-46 -11 -111 -19 -210 -2 -30 -7 -86 -11 -125 -3 -38 -8 -90 -9 -115 -2 -25
-6 -81 -9 -125 -4 -44 -8 -111 -11 -150 -2 -38 -7 -104 -10 -145 -7 -101 -14
-217 -20 -325 -2 -49 -7 -142 -10 -205 -45 -849 -57 -1655 -41 -2560 9 -447
11 -530 21 -735 l6 -140 -33 32 -33 33 -1 227 c-7 786 -15 2475 -20 3876 -5
1561 -4 1627 13 1627 10 0 43 -9 73 -20z m2715 -22 c-5 -54 -18 -329 -30 -628
-3 -80 -7 -179 -10 -220 -11 -196 -16 -279 -20 -330 -2 -30 -7 -98 -10 -150
-3 -52 -8 -120 -10 -150 -7 -79 -19 -307 -30 -545 -3 -66 -7 -160 -10 -210 -2
-49 -7 -162 -10 -250 -3 -88 -8 -207 -10 -265 -2 -58 -7 -195 -10 -305 -4
-110 -8 -256 -10 -325 -25 -777 -25 -1985 -1 -2210 2 -19 7 -66 11 -105 6 -70
20 -172 28 -210 3 -11 8 -40 12 -65 9 -56 11 -63 25 -125 6 -27 13 -57 15 -65
16 -75 39 -150 45 -150 14 0 28 53 50 185 12 72 26 136 30 144 8 15 54 -27
108 -99 15 -19 30 -37 34 -40 16 -13 60 -116 78 -182 14 -56 18 -98 15 -178
-2 -58 -6 -116 -9 -130 -4 -14 -9 -38 -12 -55 -10 -54 -37 -159 -49 -189 -15
-35 -23 -24 -30 40 -3 27 -7 63 -10 79 -2 17 -7 53 -10 80 -3 28 -9 64 -12 80
-5 27 -7 28 -13 9 -11 -28 -42 -220 -56 -336 -4 -32 -10 -58 -13 -58 -9 0 -26
50 -41 120 -14 65 -41 152 -46 148 -15 -16 -28 -295 -28 -613 0 -248 6 -381
30 -656 12 -147 13 -161 14 -344 2 -228 -7 -283 -70 -420 -47 -103 -102 -168
-78 -92 28 90 59 206 64 237 3 19 7 41 9 48 23 68 23 439 0 546 -2 11 -6 35
-9 51 -13 93 -27 165 -40 205 -13 44 -14 44 -24 20 -10 -24 -11 -23 -12 15 -1
22 -3 279 -5 570 -2 465 -7 660 -20 850 -2 28 -6 95 -10 150 -4 55 -8 116 -10
135 -2 19 -7 73 -10 120 -4 47 -8 103 -10 125 -10 95 -16 163 -21 208 -7 82
-14 150 -19 197 -12 115 -36 329 -40 363 -8 62 -14 109 -20 168 -3 31 -7 65
-9 75 -2 11 -7 55 -12 99 -4 44 -8 83 -10 88 -1 4 -3 28 -4 55 l-2 47 -8 -41
c-5 -23 -11 -79 -14 -125 -7 -96 -12 -162 -23 -269 -3 -41 -7 -705 -8 -1475
-2 -1258 -5 -1521 -20 -1605 -2 -14 -7 -47 -10 -75 -34 -296 -99 -494 -218
-670 -91 -134 -189 -214 -362 -296 -90 -42 -282 -104 -381 -123 -16 -3 -60
-12 -99 -21 -38 -8 -79 -17 -90 -19 -208 -43 -426 -88 -481 -101 -95 -22 -382
-113 -388 -124 -3 -5 4 -11 17 -15 23 -6 286 0 322 8 11 2 51 7 88 11 37 3 76
8 85 9 9 2 40 7 67 10 28 4 61 9 75 11 63 9 103 15 212 30 65 9 128 18 140 20
13 3 45 7 73 11 27 3 52 7 55 9 3 2 29 6 58 10 29 3 96 17 150 30 53 13 101
20 105 16 14 -14 -316 -132 -373 -133 -3 0 -15 -4 -28 -9 -27 -10 -42 -13
-187 -38 -60 -11 -137 -22 -170 -25 -33 -4 -71 -8 -85 -11 -14 -2 -52 -7 -85
-10 -33 -3 -73 -8 -90 -10 -16 -2 -52 -7 -80 -11 -27 -3 -66 -7 -85 -9 -57 -5
-163 -16 -190 -20 -14 -2 -63 -7 -110 -10 -47 -4 -92 -8 -100 -10 -8 -1 -55
-6 -105 -10 -49 -4 -97 -8 -105 -10 -8 -2 -53 -6 -100 -10 -47 -3 -101 -8
-120 -10 -19 -2 -71 -6 -115 -10 -44 -3 -96 -8 -115 -10 -19 -2 -79 -6 -133
-10 -54 -3 -106 -8 -115 -10 -16 -3 -172 -12 -337 -21 -510 -25 -1541 -20
-1820 10 -27 3 -75 8 -105 11 -47 5 -123 14 -255 31 -16 2 -46 6 -65 10 -19 3
-51 7 -70 10 -19 2 -71 11 -115 19 -44 8 -98 17 -120 21 -30 4 -360 75 -465
99 -225 52 -546 162 -690 236 -185 95 -360 275 -468 482 -43 83 -53 110 -82
226 -25 100 -30 257 -41 1281 l-1 165 -14 -75 c-7 -41 -16 -91 -19 -110 -5
-32 -30 -181 -40 -240 -3 -14 -7 -36 -10 -50 -4 -21 -14 -82 -30 -185 -32
-208 -42 -285 -52 -390 -9 -102 -10 -386 -1 -445 4 -25 10 -67 13 -95 6 -49 6
-49 -9 -24 -39 68 -73 261 -70 397 2 79 14 233 19 242 1 3 6 37 9 76 4 39 8
80 10 90 2 11 7 48 11 84 4 36 9 72 10 81 2 9 6 40 10 70 8 68 15 127 20 159
7 47 30 303 40 445 4 50 9 104 11 120 14 104 19 328 19 830 0 595 -6 821 -30
1105 -3 41 -8 104 -11 140 -2 36 -7 92 -10 125 -10 96 -11 108 -12 149 -1 22
-5 37 -8 34 -3 -4 -7 -201 -9 -440 -5 -483 -12 -726 -30 -958 -2 -30 -7 -89
-10 -130 -8 -110 -14 -173 -25 -290 -10 -101 -14 -144 -25 -240 -3 -25 -7 -65
-9 -90 -3 -25 -7 -58 -10 -75 -2 -16 -7 -57 -11 -90 -3 -33 -8 -71 -10 -85
-10 -67 -14 -99 -20 -146 -3 -28 -7 -60 -9 -71 -3 -12 -8 -43 -12 -70 -3 -26
-8 -57 -10 -68 -2 -11 -9 -47 -14 -80 -5 -33 -12 -69 -14 -80 -2 -11 -7 -40
-12 -65 -10 -55 -6 -35 -34 -167 -22 -107 -42 -152 -35 -80 6 59 14 132 19
177 3 25 7 68 10 95 3 28 8 75 11 105 3 30 7 73 10 95 2 22 7 80 11 130 3 49
8 98 9 107 2 10 7 66 10 126 4 59 8 123 10 142 2 19 6 85 10 145 3 61 8 135
10 165 2 30 6 123 10 205 4 83 8 179 10 215 27 487 27 1970 0 2770 -2 47 -6
175 -9 285 -4 110 -9 243 -11 295 -2 52 -7 160 -10 240 -3 80 -8 177 -10 215
-2 39 -6 126 -10 195 -3 69 -8 163 -10 210 -3 47 -7 121 -10 165 -7 133 -15
257 -20 310 -2 28 -7 100 -11 160 -3 61 -8 128 -10 150 -10 96 -16 287 -10
310 7 28 36 34 55 11 12 -14 27 -59 36 -106 3 -14 7 -36 10 -50 15 -71 31
-201 40 -320 4 -47 9 -102 11 -123 2 -21 6 -96 9 -167 2 -71 7 -171 10 -222 2
-51 7 -153 10 -227 4 -74 8 -157 10 -185 2 -28 6 -100 10 -161 3 -60 8 -130
10 -155 3 -39 10 -124 20 -275 2 -22 3 -59 4 -82 1 -53 16 -57 17 -5 0 20 4
84 8 142 24 378 24 379 32 670 10 357 11 1143 2 1203 -6 39 -5 47 8 47 19 0
87 -46 179 -121 39 -31 89 -68 113 -83 35 -22 42 -32 43 -59 5 -194 27 -518
44 -657 2 -19 7 -60 10 -90 4 -30 13 -95 21 -145 8 -49 17 -108 20 -130 3 -22
8 -47 10 -55 3 -8 8 -44 11 -80 6 -75 22 -104 24 -45 1 22 3 63 4 90 2 28 6
138 9 245 4 107 9 265 11 350 12 387 18 440 48 440 7 0 45 -11 83 -24 244 -85
591 -122 970 -102 89 5 165 15 206 26 17 6 33 8 34 7 2 -2 6 -259 8 -572 5
-553 8 -639 21 -850 10 -147 18 -145 40 6 9 57 18 115 20 129 6 44 14 104 20
155 6 47 13 91 20 125 2 8 4 26 4 39 1 13 4 21 9 17 4 -4 7 -319 8 -699 0
-381 4 -728 7 -772 6 -74 9 -126 22 -445 6 -158 16 -375 19 -433 3 -50 15 -77
17 -36 1 13 2 35 4 49 3 30 15 175 20 245 5 67 15 189 20 245 2 25 7 79 10
120 6 74 9 120 20 250 3 36 8 88 10 115 7 80 15 184 20 270 3 44 8 97 10 118
11 87 14 296 5 302 -6 3 -10 1 -10 -4 0 -16 -33 -13 -56 3 -17 13 -19 28 -20
146 -2 145 6 198 32 217 33 24 46 -29 20 -79 -18 -34 -6 -44 23 -19 19 16 28
41 30 80 1 11 4 12 13 3 17 -17 22 -307 23 -1422 0 -849 -7 -1445 -20 -1645
-2 -22 -3 -58 -4 -80 -2 -37 -8 -45 -84 -107 -129 -105 -146 -119 -226 -186
-42 -35 -101 -85 -131 -111 -30 -27 -71 -61 -90 -77 -61 -52 -150 -148 -175
-190 -26 -45 -71 -188 -80 -257 -6 -43 39 -232 86 -366 37 -102 101 -218 154
-276 38 -42 55 -71 65 -109 17 -67 43 -118 98 -191 25 -33 54 -80 65 -104 17
-40 18 -52 8 -125 -35 -265 -88 -425 -179 -544 -31 -40 -115 -104 -163 -125
-19 -7 -66 -15 -105 -16 -219 -7 -355 162 -434 540 -10 52 -22 119 -25 149 -3
30 -8 62 -10 70 -2 8 -6 49 -10 90 -9 121 -23 281 -30 350 -7 66 -16 148 -20
175 -2 17 -7 62 -10 100 -4 39 -8 84 -10 100 -2 17 -7 66 -10 110 -3 44 -8
103 -10 130 -7 76 -15 192 -20 275 -6 119 -17 324 -18 338 0 7 -4 9 -8 5 -6
-8 -12 -43 -24 -165 -3 -29 -8 -69 -10 -89 -2 -20 -7 -74 -11 -120 -3 -46 -10
-102 -14 -124 l-8 -40 -2 50 c-1 28 -3 64 -5 80 -1 17 -5 77 -9 135 -4 58 -8
128 -11 155 -2 28 -6 91 -10 140 -3 50 -8 110 -10 135 -2 25 -7 79 -10 120
-10 108 -23 171 -39 184 -8 6 -17 40 -20 81 -4 39 -8 81 -11 95 -2 14 -6 45
-9 70 -20 171 -26 222 -31 275 -3 33 -8 71 -10 85 -6 31 -20 198 -30 345 -7
110 -17 397 -30 925 -13 518 -16 610 -20 699 -5 94 -14 135 -16 70 0 -19 -2
-43 -4 -54 -3 -11 -7 -74 -10 -140 -3 -66 -7 -149 -10 -185 -2 -36 -7 -121
-10 -190 -3 -69 -8 -159 -10 -200 -8 -148 -25 -520 -30 -650 -25 -664 -25
-3771 0 -3900 2 -13 7 -42 10 -65 21 -145 94 -265 273 -444 85 -85 124 -115
188 -148 111 -58 212 -93 317 -111 56 -9 309 -8 372 1 151 24 341 120 439 222
102 107 202 291 221 407 3 18 10 56 15 83 5 28 12 74 15 104 4 30 8 61 10 70
1 9 6 48 10 86 10 97 16 105 62 93 21 -5 191 -12 378 -15 187 -3 341 -6 341
-7 1 0 4 -50 8 -109 3 -60 8 -112 10 -116 3 -4 7 -25 10 -47 23 -189 78 -338
171 -469 113 -159 314 -275 521 -301 23 -2 53 -7 65 -10 59 -11 318 -5 394 11
212 43 397 152 513 302 58 74 120 208 137 292 2 9 10 50 19 91 17 82 42 273
45 338 l1 23 355 -2 c195 -1 357 -5 360 -9 5 -9 12 -51 20 -120 3 -30 7 -66 9
-80 3 -14 10 -59 16 -100 29 -185 84 -332 162 -434 255 -333 776 -418 1211
-200 93 47 209 152 343 309 106 124 149 254 158 476 25 569 25 3103 1 3579 -2
41 -6 156 -10 255 -3 99 -8 216 -10 260 -2 44 -7 134 -10 200 -3 66 -8 167
-11 225 -3 58 -7 143 -9 190 -2 47 -7 121 -9 165 -3 44 -8 118 -11 165 -8 131
-16 183 -30 210 l-13 25 -6 -25 c-3 -14 -8 -122 -11 -240 -6 -254 -13 -355
-30 -470 -2 -14 -9 -54 -14 -90 -5 -36 -13 -89 -16 -119 -4 -30 -8 -61 -10
-70 -1 -9 -6 -47 -10 -86 -4 -38 -9 -77 -10 -86 -2 -9 -6 -40 -10 -70 -3 -30
-8 -70 -10 -89 -3 -19 -7 -55 -10 -80 -3 -25 -7 -61 -10 -80 -2 -19 -7 -53 -9
-75 -3 -22 -7 -58 -10 -80 -3 -22 -8 -74 -12 -115 -3 -41 -7 -82 -9 -90 -2 -8
-6 -58 -9 -110 -4 -52 -9 -111 -11 -130 -3 -19 -7 -78 -10 -130 -3 -52 -7
-113 -10 -135 -2 -22 -7 -87 -11 -145 -4 -58 -8 -123 -9 -145 -2 -22 -6 -89
-9 -150 -4 -60 -9 -130 -11 -155 -4 -48 -12 -225 -20 -430 -12 -328 -17 -459
-20 -510 -2 -30 -5 -81 -6 -112 -1 -32 -5 -58 -9 -58 -4 0 -7 6 -7 13 -2 84
-16 239 -24 265 -13 39 -29 42 -30 5 0 -16 -2 -37 -4 -48 -2 -11 -7 -47 -10
-80 -8 -81 -15 -151 -20 -205 -5 -43 -7 -75 -20 -235 -22 -281 -35 -408 -50
-495 -2 -14 -7 -47 -10 -75 -29 -238 -134 -525 -226 -615 -50 -49 -133 -84
-194 -82 -101 4 -207 100 -277 252 -28 59 -66 180 -93 298 l-18 73 34 37 c19
20 39 41 45 47 25 23 79 112 119 198 58 123 97 242 120 364 5 32 -33 189 -63
253 -22 49 -131 201 -172 240 -8 8 -41 47 -72 85 -31 39 -65 79 -75 90 -10 12
-43 50 -73 85 -30 36 -65 76 -77 89 -24 27 -30 54 -39 176 -3 44 -7 100 -9
125 -38 500 -39 512 -75 520 -19 4 -26 13 -28 38 -3 27 1 34 22 42 l26 9 -6
110 c-2 60 -7 119 -9 130 -2 11 -6 51 -10 88 -3 37 -8 77 -10 88 -2 11 -7 49
-11 85 -3 36 -8 67 -10 71 -12 21 -23 289 -24 559 0 237 1 246 19 380 14 103
21 157 35 280 3 25 10 83 15 130 6 47 13 110 16 140 3 30 7 71 10 90 2 19 7
60 10 90 13 123 16 156 20 180 2 14 7 59 10 100 4 41 8 91 10 110 2 19 6 78
10 130 4 52 8 111 10 130 2 19 6 82 10 140 3 58 8 130 10 160 2 30 7 98 10
150 8 127 15 204 21 209 2 2 4 -40 5 -95 1 -160 16 -634 24 -754 1 -30 6 -100
9 -155 4 -55 8 -111 11 -125 2 -14 6 -43 9 -65 7 -55 16 -99 22 -104 19 -19
48 89 59 215 3 38 7 92 9 119 3 28 8 113 11 190 3 77 8 176 10 220 2 44 7 148
10 230 4 83 8 173 10 200 4 63 16 698 19 992 1 122 5 225 8 229 11 11 64 -33
135 -113 37 -42 88 -95 112 -117 24 -23 49 -46 55 -51 39 -37 168 -131 206
-150 45 -23 247 -78 259 -71 4 3 26 7 51 11 25 4 48 9 52 11 8 5 19 8 78 19
14 3 61 14 105 25 44 11 87 22 96 24 9 3 34 9 55 15 21 6 42 7 46 3 4 -4 9
-95 13 -202 21 -718 29 -918 38 -926 8 -8 25 28 32 67 3 19 10 57 15 84 6 28
12 64 14 80 3 17 7 44 9 60 3 17 9 50 12 75 4 25 9 52 10 60 6 31 19 144 30
255 2 22 7 85 10 140 4 55 9 116 11 135 2 19 6 105 9 190 3 85 8 171 11 190
10 67 289 779 315 805 7 7 8 -24 5 -92 -6 -110 -15 -325 -21 -548 -5 -164 -5
-1179 0 -1245 1 -25 4 -61 5 -80 l2 -35 14 44 c7 23 15 59 18 80 3 20 10 72
16 116 6 44 13 100 15 125 3 25 7 56 10 70 2 14 7 57 10 95 3 39 8 84 10 100
3 26 6 60 20 215 7 75 17 176 20 190 1 8 6 49 10 90 3 41 8 86 10 100 3 14 14
104 25 200 21 172 24 196 35 275 10 70 16 119 20 155 2 19 6 49 8 65 3 17 8
57 12 90 3 33 8 68 11 78 9 29 22 19 19 -15z m876 -3 c63 -7 153 -51 220 -106
132 -109 243 -341 273 -569 4 -25 9 -61 11 -80 31 -217 38 -525 39 -1535 0
-743 -4 -1059 -19 -1355 -7 -153 -16 -313 -20 -365 -10 -130 -15 -204 -20
-300 -4 -55 -8 -116 -10 -135 -2 -19 -7 -73 -10 -120 -3 -47 -8 -103 -10 -125
-2 -22 -7 -67 -10 -100 -3 -33 -8 -76 -10 -95 -2 -19 -7 -60 -10 -90 -3 -30
-7 -68 -10 -85 -6 -36 -15 -91 -21 -125 -26 -143 -96 -288 -185 -381 -48 -50
-130 -104 -196 -129 -67 -25 -231 -35 -313 -18 -133 26 -269 108 -414 248
l-88 86 -4 80 c-4 93 -4 1080 1 1269 1 72 6 276 9 455 4 179 9 366 11 415 2
50 6 182 10 295 4 113 8 243 10 290 2 47 6 182 10 300 3 118 8 267 10 330 3
63 7 180 10 260 8 233 22 524 30 630 2 30 7 98 10 150 4 52 8 115 10 140 2 25
6 90 10 145 4 55 8 113 10 129 2 16 7 79 11 140 3 61 10 121 14 132 18 48 180
151 306 195 93 32 206 41 335 24z m-9465 -7862 c-2 -27 -5 -58 -5 -70 -1 -13
-5 -23 -10 -23 -4 0 -7 10 -5 23 2 12 6 43 9 70 4 26 8 47 11 47 3 0 3 -21 0
-47z m3948 -15 c-3 -5 -12 -4 -20 3 -7 6 -11 15 -8 21 3 5 12 4 20 -3 7 -6 11
-15 8 -21z m586 24 c0 -17 -41 -127 -55 -149 -22 -33 -55 -52 -109 -62 -63
-12 -101 0 -149 46 -38 37 -117 147 -117 165 0 4 97 8 215 8 118 0 215 -4 215
-8z m-4627 -926 l24 -79 -18 -71 c-10 -39 -28 -125 -39 -191 -12 -66 -23 -131
-25 -145 -3 -14 -7 -45 -11 -70 -3 -25 -7 -55 -9 -66 -2 -12 -7 -48 -10 -80
-4 -33 -9 -68 -11 -79 -18 -98 -26 -473 -12 -590 9 -79 15 -106 40 -190 12
-38 23 -74 24 -80 2 -5 12 -34 23 -62 12 -29 17 -53 12 -53 -16 0 -77 82 -109
145 -28 55 -64 167 -77 240 -26 152 -26 395 1 615 6 48 69 419 78 460 4 14 11
54 17 89 5 36 12 67 14 70 2 4 6 27 10 51 3 25 8 53 11 62 3 9 7 27 9 40 19
98 23 97 58 -16z m8866 -243 c30 -144 27 -129 46 -308 14 -125 2 -420 -21
-539 -2 -11 -6 -37 -9 -57 -3 -20 -15 -68 -26 -105 -10 -38 -21 -77 -23 -86
-3 -9 -12 -29 -20 -45 -14 -26 -15 -13 -8 157 4 102 7 295 6 430 0 257 -3 278
-56 436 l-20 62 28 48 c53 94 66 114 73 114 4 0 18 -48 30 -107z m-8423 -289
c338 -204 731 -357 1204 -469 149 -35 156 -36 250 -54 30 -6 66 -13 80 -16 34
-7 187 -33 231 -39 20 -3 42 -8 50 -10 8 -3 37 -7 64 -10 28 -3 84 -10 125
-16 158 -22 287 -37 373 -45 32 -2 77 -7 100 -9 110 -13 388 -32 607 -42 63
-3 414 -5 780 -5 764 0 1167 8 1335 26 28 3 70 8 95 10 25 3 70 7 100 10 73 8
376 43 420 49 344 51 574 91 760 132 138 31 130 29 205 49 33 8 67 17 76 19
222 55 539 173 765 285 78 38 148 71 156 73 22 5 88 -24 88 -38 0 -7 -17 -26
-37 -41 -21 -15 -40 -30 -43 -33 -34 -37 -301 -174 -447 -230 -44 -17 -87 -38
-94 -46 -12 -15 -8 -16 31 -10 25 3 55 8 66 10 12 2 38 7 57 10 193 31 306 67
475 154 46 23 88 42 93 42 7 0 25 -52 35 -105 2 -11 8 -42 14 -70 5 -27 11
-84 12 -126 2 -69 -1 -79 -29 -120 -55 -80 -144 -154 -337 -282 -66 -43 -136
-98 -136 -107 0 -23 118 5 288 69 45 17 82 27 82 22 0 -14 -104 -116 -150
-147 -84 -57 -214 -106 -510 -193 -96 -29 -195 -58 -220 -65 -25 -8 -121 -35
-215 -61 -93 -26 -195 -54 -225 -63 -30 -9 -57 -17 -60 -17 -78 -19 -181 -55
-195 -68 -9 -8 76 -5 190 7 17 2 62 6 100 10 145 15 161 16 205 21 25 3 69 7
99 10 30 3 59 9 65 12 8 4 8 3 0 -6 -15 -16 -205 -70 -444 -126 -141 -33 -293
-64 -440 -90 -19 -3 -42 -8 -50 -10 -8 -2 -33 -7 -55 -10 -23 -3 -50 -7 -61
-9 -12 -2 -45 -7 -74 -11 -29 -4 -60 -8 -69 -10 -9 -1 -45 -6 -81 -11 -36 -4
-67 -8 -70 -9 -3 -1 -25 -5 -50 -10 -43 -8 -44 -9 -15 -15 48 -10 425 0 600
15 28 2 82 7 120 10 39 3 108 10 155 15 47 6 108 13 135 16 28 2 61 7 75 9 14
2 44 7 67 10 118 16 157 23 313 51 120 23 113 21 250 53 268 63 406 103 649
190 62 23 118 41 123 41 26 0 -16 -27 -130 -84 -185 -92 -314 -141 -612 -232
-36 -11 -164 -40 -305 -70 -179 -37 -617 -91 -885 -109 -518 -33 -845 -40
-1885 -39 -808 0 -1514 7 -1890 19 -529 17 -697 25 -970 51 -95 9 -138 19
-407 95 -139 39 -266 75 -283 79 -211 55 -465 166 -624 273 -74 49 -241 207
-241 227 0 13 -4 16 131 -75 191 -129 434 -219 904 -337 66 -16 127 -31 135
-33 8 -2 48 -11 89 -20 86 -20 84 -20 136 -29 22 -4 60 -11 85 -16 126 -27
351 -56 485 -65 432 -28 877 -27 907 3 30 30 -135 68 -467 107 -27 3 -66 8
-85 10 -73 10 -109 15 -240 31 -74 9 -146 18 -160 19 -14 2 -52 7 -85 10 -64
7 -324 43 -365 50 -14 3 -38 7 -55 10 -532 93 -1000 287 -1228 512 -99 97
-207 271 -207 333 0 31 12 24 65 -37 46 -52 80 -86 145 -144 70 -61 233 -152
377 -210 171 -68 532 -169 723 -203 14 -2 41 -7 60 -10 73 -13 109 -16 240
-21 225 -8 210 12 -69 91 -86 24 -172 48 -191 54 -19 5 -99 28 -178 50 -78 22
-152 44 -165 49 -12 5 -60 24 -107 42 -208 81 -393 198 -564 359 -140 132
-204 242 -230 395 -10 53 -26 355 -20 355 1 0 51 -29 110 -66z"/>
<path d="M16363 23735 c-195 -42 -405 -215 -525 -435 -38 -69 -60 -148 -65
-232 -8 -109 0 -106 72 27 98 183 217 298 403 389 181 90 343 98 534 26 48
-18 241 -137 258 -159 8 -9 41 -29 84 -50 49 -24 70 -18 61 18 -36 151 -254
341 -465 406 -71 22 -273 27 -357 10z"/>
<path d="M18745 21688 c21 -66 198 -278 292 -350 84 -64 195 -115 277 -126 67
-9 237 -8 286 1 184 35 359 141 468 283 62 81 31 108 -44 39 -26 -25 -253
-142 -289 -150 -11 -3 -48 -11 -83 -19 -114 -25 -279 -10 -412 38 -120 44
-272 133 -400 236 -36 29 -73 56 -83 62 -17 8 -18 7 -12 -14z"/>
<path d="M22205 21164 c-83 -16 -195 -70 -247 -118 -53 -49 -48 -60 15 -35 28
11 70 27 92 36 22 8 72 15 110 15 198 1 384 -126 459 -314 28 -70 48 -40 51
75 3 98 -20 169 -72 227 -90 100 -249 144 -408 114z"/>
<path d="M12930 20423 c-114 -39 -233 -159 -298 -301 -28 -60 -35 -89 -40
-170 -11 -152 0 -267 30 -333 49 -107 145 -184 246 -196 80 -9 80 -7 -40 158
-77 108 -102 190 -96 312 12 206 125 400 278 475 43 21 69 27 125 27 38 0 71
4 73 9 12 33 -195 47 -278 19z"/>
<path d="M25596 17533 c-8 -40 -13 -77 -21 -158 -4 -38 -9 -83 -11 -100 -2
-16 -6 -59 -9 -95 -3 -36 -8 -76 -10 -90 -2 -14 -7 -58 -10 -97 -3 -40 -8 -81
-10 -91 -2 -10 -6 -51 -10 -91 -3 -40 -8 -82 -10 -93 -3 -11 -7 -46 -10 -77
-4 -31 -9 -69 -11 -86 -23 -142 -31 -247 -33 -480 -5 -415 -13 -607 -37 -845
-3 -36 -8 -74 -10 -85 -9 -50 -18 -244 -17 -385 1 -149 13 -240 33 -240 17 0
38 44 59 120 31 117 37 188 56 680 4 85 8 175 10 200 2 25 6 88 10 140 4 52 8
113 10 135 3 22 7 67 10 100 7 69 11 101 25 205 22 153 25 269 25 847 0 432
-3 595 -11 603 -9 9 -13 5 -18 -17z"/>
<path d="M24519 17203 c0 -5 -2 -15 -3 -23 -2 -8 -6 -49 -10 -90 -4 -41 -9
-88 -11 -105 -7 -53 -14 -128 -21 -210 -3 -44 -8 -93 -10 -110 -3 -16 -7 -183
-9 -370 -5 -392 5 -505 44 -505 27 0 52 67 68 180 21 146 2 1143 -23 1222 -5
18 -23 25 -25 11z"/>
<path d="M24562 13658 c-5 -7 -12 -37 -16 -66 -39 -333 -124 -707 -188 -837
-31 -61 -93 -146 -192 -265 -47 -56 -53 -67 -41 -79 12 -12 23 -11 82 8 37 12
89 36 116 53 188 120 308 430 309 798 0 160 -16 307 -41 373 -12 31 -15 32
-29 15z"/>
<path d="M19408 19385 c-2 -2 -118 -5 -258 -6 -140 -1 -259 -3 -265 -5 -10 -4
-12 -6523 -1 -6804 2 -69 5 -134 5 -144 1 -11 4 -17 7 -13 13 13 14 278 19
3312 5 3296 6 3559 18 3572 5 4 38 8 75 10 132 4 748 3 822 -2 166 -11 222
-17 290 -30 59 -12 -12 16 -112 44 -96 27 -131 35 -208 46 -14 2 -101 7 -195
10 -93 4 -175 8 -182 10 -6 2 -13 2 -15 0z"/>
<path d="M14570 8695 c0 -49 111 -191 202 -260 116 -87 374 -201 592 -260 176
-48 282 -60 507 -59 187 1 288 26 216 53 -19 8 -165 40 -252 57 -17 3 -289 67
-335 79 -232 58 -548 162 -655 215 -44 22 -111 64 -150 95 -129 101 -125 98
-125 80z"/>
<path d="M22020 8253 c-30 -8 -154 -46 -275 -85 -190 -60 -569 -170 -630 -182
-11 -2 -65 -13 -120 -25 -55 -11 -118 -23 -139 -27 -52 -8 -90 -23 -82 -31 7
-8 306 -6 385 2 25 2 75 7 111 10 159 15 438 93 585 165 92 44 217 126 233
151 19 30 -7 38 -68 22z"/>
<path d="M17130 7680 c-8 -5 21 -16 76 -28 49 -12 143 -34 209 -49 l120 -28
380 0 c538 1 878 17 951 46 27 10 27 12 9 19 -23 8 -59 9 -584 16 -212 2 -413
6 -446 8 -311 20 -695 28 -715 16z"/>
<path d="M20218 7455 c-2 -2 -61 -5 -133 -9 -71 -3 -143 -8 -160 -10 -16 -2
-59 -7 -95 -10 -36 -4 -72 -9 -80 -11 -8 -2 -39 -7 -69 -10 -30 -4 -63 -8 -74
-11 -10 -2 -45 -6 -76 -10 -31 -3 -59 -8 -62 -10 -3 -2 -60 -6 -125 -10 -65
-3 -123 -10 -128 -14 -17 -16 5 -29 62 -35 31 -4 68 -9 82 -11 33 -6 328 -5
405 1 101 8 218 20 275 30 8 2 40 6 70 11 30 4 57 8 60 9 3 1 21 5 40 9 57 13
134 38 145 47 16 16 -9 28 -73 37 -34 5 -63 8 -64 7z"/>
<path d="M17482 3621 c-118 -56 -205 -216 -258 -476 -2 -11 -6 -30 -8 -42 -3
-11 -8 -43 -12 -70 -3 -26 -8 -57 -10 -68 -16 -84 -23 -552 -11 -730 13 -198
78 -340 184 -402 54 -31 147 -40 224 -20 128 32 249 261 293 557 3 19 8 46 10
60 25 136 35 296 35 535 0 198 -1 222 -25 360 -24 142 -89 246 -179 289 -60
29 -189 32 -243 7z"/>
</g>
</svg>
